# This file uses centimeters as units for non-parametric coordinates.

mtllib boommin.mtl
g default
v -0.345229 0.031477 0.232111
v -0.380414 0.032070 0.235256
v -0.408271 0.033176 0.266295
v -0.407605 0.033953 0.301611
v -0.258426 0.030983 0.267889
v -0.289549 0.046582 0.302567
v -0.331548 0.048249 0.349363
v -0.362672 0.035122 0.384040
v -0.197527 0.031518 0.332530
v -0.223682 0.046920 0.361671
v -0.265681 0.048587 0.408467
v -0.291835 0.035263 0.437608
v -0.170430 0.032342 0.387567
v -0.168429 0.033316 0.432603
v -0.189197 0.034141 0.455743
v -0.234191 0.034874 0.458610
v 0.109471 1.341399 -0.149438
v -0.012057 1.186640 -0.109193
v -0.041883 1.209929 0.007147
v -0.030596 1.339901 0.041177
v 0.002240 1.424784 -0.070249
v -0.136366 1.491250 -0.253328
v -0.210830 1.436964 -0.260123
v -0.255787 1.439932 -0.179450
v -0.209108 1.496052 -0.122796
v -0.135302 1.527769 -0.168456
v -0.062752 1.352583 -0.138435
v 0.080808 -0.027809 -0.148041
v -0.215636 -0.026195 -0.051734
v -0.278909 -0.020675 0.277639
v 0.080808 -0.019358 0.356230
v 0.264020 -0.023584 0.104094
v 0.062479 0.676173 -0.095410
v -0.120700 0.664403 -0.037067
v -0.145617 0.626315 0.151735
v 0.062479 0.614546 0.210078
v 0.175690 0.645359 0.057334
v -0.001128 -0.023584 0.104094
v 0.109471 1.330901 0.085789
v 0.196038 1.354463 -0.031006
v 0.381319 2.297625 -0.279745
v 0.308632 2.292955 -0.256594
v 0.260852 2.777163 -0.249656
v 0.308632 2.277842 -0.181676
v 0.381319 2.273171 -0.158525
v 0.426242 2.285398 -0.219135
v 0.096991 1.191621 -0.133887
v 0.096991 1.140646 0.118799
v 0.190634 1.166133 -0.007544
v -0.542247 2.049556 -0.452765
v -0.580201 1.992959 -0.454896
v -0.597550 1.991139 -0.427547
v -0.578908 1.996773 -0.367397
v -0.515185 2.031635 -0.383233
v -0.558904 2.338464 -0.378163
v -0.610905 2.318197 -0.400342
v -0.769608 2.594733 -0.298362
v -0.642397 2.292787 -0.357414
v -0.609858 2.297350 -0.308706
v -0.558257 2.325580 -0.321530
v -0.480669 1.962494 -0.416751
v -0.537535 1.960162 -0.449348
v -0.570244 1.916885 -0.398769
v -0.525432 1.918121 -0.340596
v -0.465027 1.962161 -0.355221
v -0.419930 2.094774 -0.541106
v -0.437917 2.100951 -0.492282
v -0.401662 2.082565 -0.459223
v -0.361268 2.065025 -0.487614
v -0.372559 2.072570 -0.538221
v -0.468923 2.006376 -0.472029
v -0.291543 2.389225 -0.362445
v -0.311595 2.382545 -0.336704
v -0.242888 2.559607 -0.133857
v -0.293360 2.367915 -0.312979
v -0.262038 2.365554 -0.324059
v -0.260914 2.378725 -0.354631
v 0.240670 1.811016 -0.252610
v 0.150110 1.851904 -0.200465
v 0.133121 1.800693 -0.106658
v 0.240670 1.793783 -0.072404
v 0.307138 1.811874 -0.162083
v -0.346182 1.771605 -0.316476
v -0.399087 1.725334 -0.335598
v -0.411847 1.680335 -0.270092
v -0.367844 1.713820 -0.213124
v -0.327889 1.779513 -0.243423
v 0.313351 2.071177 -0.309765
v 0.368686 2.065273 -0.234698
v 0.313351 2.050213 -0.160040
v 0.223818 2.055965 -0.188557
v 0.232028 2.088522 -0.272603
v 0.119051 0.076280 -0.100075
v 0.127636 0.082483 -0.066369
v 0.162340 0.082483 -0.043212
v 0.196759 0.076280 -0.048224
v 0.140434 0.053489 -0.188610
v 0.179207 0.072873 -0.164881
v 0.231530 0.072873 -0.129968
v 0.270303 0.053489 -0.101954
v 0.194087 0.030698 -0.255611
v 0.226671 0.050082 -0.236013
v 0.278993 0.050082 -0.201100
v 0.311576 0.030698 -0.177216
v 0.243647 0.016037 -0.288672
v 0.287359 0.007907 -0.296178
v 0.313232 0.007907 -0.278914
v 0.323080 0.016037 -0.235670
v 0.219206 0.033818 -0.078382
v 0.192877 0.034735 -0.054840
v 0.189091 0.035717 -0.013303
v 0.210728 0.036018 0.014625
v 0.310174 0.031949 -0.101539
v 0.305944 0.044858 -0.055132
v 0.300237 0.046339 0.007492
v 0.296007 0.035625 0.053900
v 0.397622 0.030994 -0.086071
v 0.394068 0.043727 -0.047073
v 0.388360 0.045208 0.015551
v 0.384806 0.034319 0.054549
v 0.452233 0.030805 -0.058113
v 0.480749 0.031159 -0.023186
v 0.477926 0.031891 0.007781
v 0.443568 0.033053 0.036959
vt 0.560306 0.438628
vt 0.534317 0.469368
vt 0.491808 0.423275
vt 0.507733 0.411608
vt 0.603037 0.020166
vt 0.626440 0.029968
vt 0.577597 0.070292
vt 0.560811 0.066259
vt 0.628078 0.058653
vt 0.587100 0.084453
vt 0.008587 0.669185
vt 0.035535 0.662163
vt 0.060477 0.691576
vt 0.049564 0.707360
vt 0.252655 0.547804
vt 0.265729 0.526975
vt 0.293844 0.553995
vt 0.277597 0.565239
vt 0.387772 0.666936
vt 0.413761 0.697676
vt 0.376930 0.700486
vt 0.419939 0.481995
vt 0.443343 0.472193
vt 0.456490 0.505743
vt 0.418302 0.510680
vt 0.445250 0.523762
vt 0.390829 0.718505
vt 0.244751 0.584071
vt 0.233631 0.589258
vt 0.199691 0.526975
vt 0.494149 0.245062
vt 0.504223 0.241551
vt 0.503833 0.307345
vt 0.514241 0.244567
vt 0.105049 0.592467
vt 0.116084 0.597842
vt 0.070885 0.655245
vt 0.131460 0.726392
vt 0.143877 0.726698
vt 0.137986 0.783795
vt 0.696829 0.227408
vt 0.633433 0.227408
vt 0.653029 0.157333
vt 0.692203 0.157333
vt 0.589118 0.310170
vt 0.659565 0.310170
vt 0.643042 0.380245
vt 0.601852 0.380245
vt 0.008587 0.020166
vt 0.085514 0.020166
vt 0.080888 0.090241
vt 0.036385 0.090241
vt 0.153525 0.020166
vt 0.207452 0.020166
vt 0.207452 0.090241
vt 0.174129 0.090241
vt 0.261380 0.020166
vt 0.240775 0.090241
vt 0.284447 0.769512
vt 0.263848 0.706116
vt 0.317776 0.723639
vt 0.354895 0.783043
vt 0.371704 0.706116
vt 0.317776 0.666936
vt 0.713352 0.332031
vt 0.697807 0.332031
vt 0.687589 0.230233
vt 0.386299 0.215109
vt 0.402644 0.215109
vt 0.367277 0.316908
vt 0.133528 0.422352
vt 0.149073 0.422352
vt 0.123310 0.524150
vt 0.321543 0.422352
vt 0.334766 0.422352
vt 0.361961 0.524150
vt 0.347989 0.422352
vt 0.058569 0.206470
vt 0.088268 0.196668
vt 0.090937 0.235155
vt 0.060983 0.235155
vt 0.215513 0.196668
vt 0.243076 0.196668
vt 0.255959 0.235155
vt 0.230479 0.235155
vt 0.270640 0.196668
vt 0.280234 0.227408
vt 0.683273 0.432891
vt 0.663907 0.422115
vt 0.681425 0.375563
vt 0.698817 0.380771
vt 0.416718 0.125025
vt 0.438548 0.118257
vt 0.410584 0.168306
vt 0.391589 0.171577
vt 0.095995 0.325500
vt 0.118994 0.325500
vt 0.134538 0.375549
vt 0.115391 0.375549
vt 0.283216 0.325500
vt 0.302781 0.325500
vt 0.328719 0.375549
vt 0.312432 0.375549
vt 0.321722 0.321492
vt 0.344705 0.373612
vt 0.676263 0.050906
vt 0.699583 0.050906
vt 0.588051 0.496474
vt 0.564647 0.486672
vt 0.702252 0.020166
vt 0.499017 0.167935
vt 0.511450 0.161001
vt 0.502277 0.175350
vt 0.496467 0.174575
vt 0.523593 0.163721
vt 0.514648 0.179075
vt 0.113071 0.775007
vt 0.118000 0.762089
vt 0.126810 0.772816
vt 0.122016 0.786443
vt 0.248313 0.647790
vt 0.240197 0.659745
vt 0.111667 0.526975
vt 0.125295 0.533613
vt 0.131964 0.662163
vt 0.147298 0.662979
vt 0.462863 0.355508
vt 0.451549 0.366016
vt 0.421941 0.321600
vt 0.434102 0.319732
vt 0.448820 0.372679
vt 0.414946 0.328533
vt 0.548429 0.116855
vt 0.558955 0.126284
vt 0.077709 0.741306
vt 0.086839 0.732762
vt 0.303959 0.614842
vt 0.318938 0.610095
vt 0.348032 0.645871
vt 0.335119 0.648403
vt 0.343929 0.661782
vt 0.152014 0.526975
vt 0.150067 0.538929
vt 0.139610 0.548032
vt 0.129636 0.544672
vt 0.513620 0.502258
vt 0.498286 0.496470
vt 0.516370 0.472193
vt 0.524078 0.479946
vt 0.352373 0.542886
vt 0.359754 0.526975
vt 0.385289 0.545471
vt 0.376650 0.550349
vt 0.492715 0.497727
vt 0.485980 0.509888
vt 0.462596 0.474607
vt 0.473524 0.472193
vt 0.483430 0.519012
vt 0.461052 0.484738
vt 0.547221 0.487874
vt 0.535266 0.495990
vt 0.537354 0.472193
vt 0.567981 0.499299
vt 0.568797 0.514633
vt 0.558931 0.516845
vt 0.552069 0.503401
vt 0.580869 0.513972
vt 0.574134 0.501811
vt 0.587578 0.499299
vt 0.528625 0.486866
vt 0.154636 0.613954
vt 0.160315 0.613642
vt 0.195350 0.659338
vt 0.165907 0.611579
vt 0.399811 0.616352
vt 0.406510 0.615388
vt 0.410605 0.664111
vt 0.183811 0.733045
vt 0.190777 0.734513
vt 0.152146 0.781768
vt 0.255104 0.711861
vt 0.248554 0.709991
vt 0.258959 0.664606
vt 0.147318 0.545576
vt 0.205388 0.663128
vt 0.216316 0.662569
vt 0.231229 0.783805
vt 0.221098 0.779272
vt 0.449004 0.020166
vt 0.462078 0.040995
vt 0.407516 0.114249
vt 0.489026 0.027913
vt 0.532794 0.123518
vt 0.961672 0.236745
vt 0.960255 0.252605
vt 0.929915 0.211648
vt 0.945545 0.197619
vt 0.946264 0.265161
vt 0.908822 0.230579
vt 0.903274 0.181958
vt 0.916409 0.170169
vt 0.930346 0.264861
vt 0.893191 0.244607
vt 0.882181 0.200889
vt 0.871302 0.157054
vt 0.891601 0.157956
vt 0.869045 0.212678
vt 0.860871 0.166415
vt 0.859579 0.186695
vt 0.823567 0.067819
vt 0.827436 0.052626
vt 0.850682 0.097030
vt 0.833205 0.107726
vt 0.843079 0.042189
vt 0.874266 0.081293
vt 0.872076 0.129092
vt 0.857389 0.137927
vt 0.858593 0.044448
vt 0.891743 0.068666
vt 0.895660 0.113356
vt 0.899431 0.156212
vt 0.879728 0.152828
vt 0.910347 0.102590
vt 0.911093 0.148430
vt 0.915532 0.128938
vt 0.811504 0.160078
vt 0.800892 0.171946
vt 0.801024 0.120981
vt 0.821941 0.119074
vt 0.782170 0.173652
vt 0.772796 0.123554
vt 0.797391 0.081260
vt 0.814969 0.079657
vt 0.769581 0.163899
vt 0.751878 0.125460
vt 0.769164 0.083832
vt 0.786624 0.042189
vt 0.802368 0.055042
vt 0.751585 0.085434
vt 0.772666 0.043461
vt 0.759514 0.058948
vn 0.080633 0.959631 -0.269458
vn -0.046083 0.988899 -0.141263
vn 0.047118 0.988335 -0.144825
vn 0.169787 0.951374 -0.257022
vn -0.110322 0.991415 -0.070182
vn -0.104612 0.994228 0.023796
vn -0.227842 0.971019 0.072187
vn -0.206423 0.965085 0.161247
vn 0.148504 0.986535 -0.068524
vn 0.258312 0.944160 -0.204540
vn -0.017497 0.992977 0.117006
vn -0.144182 0.958657 0.245333
vn 0.165564 0.984838 0.051788
vn 0.310725 0.944422 -0.107314
vn 0.104899 0.987225 0.119931
vn -0.040249 0.957077 0.287027
vn 0.212693 -0.345656 -0.913939
vn 0.212693 -0.345656 -0.913939
vn 0.228135 -0.238381 -0.943996
vn 0.225904 -0.255407 -0.940072
vn -0.687035 -0.707286 -0.166521
vn -0.687035 -0.707286 -0.166521
vn -0.693334 -0.666292 -0.274489
vn -0.693390 -0.664549 -0.278539
vn -0.720035 -0.109629 0.685224
vn -0.720035 -0.109629 0.685224
vn -0.708246 -0.141051 0.691731
vn -0.705547 -0.147928 0.693051
vn 0.099954 0.765276 0.635895
vn 0.099954 0.765276 0.635895
vn 0.146618 0.633171 0.759999
vn 0.150868 0.619190 0.770612
vn 0.604947 0.776555 -0.176072
vn 0.604947 0.776555 -0.176072
vn 0.713775 0.666052 -0.216564
vn 0.709282 0.671380 -0.214866
vn 0.664676 0.321868 0.674246
vn 0.057043 -0.098994 0.993452
vn 0.691495 -0.178913 0.699875
vn 0.991559 0.128661 -0.016061
vn 0.965711 -0.181435 -0.185698
vn 0.534419 -0.782590 0.319293
vn 0.624251 0.648777 -0.435199
vn -0.293604 0.177869 -0.939233
vn -0.474936 0.860291 0.185296
vn -0.924062 -0.377139 -0.062248
vn -0.283645 -0.185100 0.940895
vn 0.608149 0.419536 0.673902
vn -0.307481 0.062709 -0.949486
vn -0.307481 0.062709 -0.949486
vn -0.298650 0.031511 -0.953842
vn -0.295491 0.020611 -0.955123
vn -0.975695 0.153472 -0.156412
vn -0.975695 0.153472 -0.156412
vn -0.975294 0.153639 -0.158737
vn -0.974935 0.153786 -0.160782
vn -0.224747 0.221705 0.948860
vn -0.224747 0.221705 0.948860
vn -0.279300 0.227788 0.932794
vn -0.280194 0.227883 0.932502
vn 0.792662 0.152302 0.590331
vn 0.792662 0.152302 0.590331
vn 0.795524 0.111333 0.595606
vn 0.794635 0.126354 0.593793
vn 0.807188 0.065216 -0.586681
vn 0.807188 0.065216 -0.586681
vn 0.803148 0.002319 -0.595775
vn 0.804694 0.021088 -0.593315
vn -0.000000 -0.999860 0.016758
vn -0.000000 -0.999860 0.016758
vn -0.000000 -0.999860 0.016758
vn -0.000000 -0.999860 0.016758
vn -0.000000 -0.999860 0.016758
vn 0.000000 -0.999860 0.016758
vn 0.402680 0.157735 -0.901648
vn -0.813016 -0.071947 -0.577779
vn -0.096325 0.992387 0.076747
vn -0.718781 0.025806 0.694758
vn 0.322477 0.242526 0.914981
vn 0.931352 0.323593 0.166944
vn -0.409005 0.187075 0.893151
vn -0.395024 0.213630 0.893487
vn -0.326449 0.286303 0.900812
vn -0.336279 0.272233 0.901557
vn 0.797249 0.052046 0.601403
vn 0.797249 0.052046 0.601403
vn 0.804082 -0.007419 0.594472
vn 0.802121 0.012478 0.597032
vn 0.791313 -0.100256 -0.603136
vn 0.792039 -0.101425 -0.601986
vn 0.782913 -0.270442 -0.560275
vn 0.782265 -0.274410 -0.559251
vn -0.544139 -0.048654 -0.837583
vn -0.544517 -0.048474 -0.837348
vn -0.435479 0.026999 -0.899794
vn -0.425411 0.048760 -0.903686
vn -0.942403 0.334286 0.011422
vn -0.944214 0.329266 -0.006640
vn -0.938796 0.342542 0.036436
vn -0.936877 0.346576 0.046333
vn -0.258960 0.377275 0.889159
vn -0.258960 0.377275 0.889159
vn -0.279428 0.248517 0.927448
vn -0.274463 0.283386 0.918892
vn 0.805625 -0.026075 0.591851
vn 0.805626 -0.026076 0.591851
vn 0.808409 -0.154179 0.568070
vn 0.808835 -0.095340 0.580256
vn 0.765081 -0.338404 -0.547846
vn 0.764728 -0.338432 -0.548320
vn 0.767972 -0.270523 -0.580548
vn 0.768791 -0.266157 -0.581482
vn -0.266856 -0.066089 -0.961468
vn -0.263375 -0.067270 -0.962345
vn -0.973780 0.154242 -0.167221
vn -0.973780 0.154242 -0.167221
vn -0.216490 -0.082959 -0.972754
vn -0.467180 -0.602003 -0.647561
vn -0.456579 -0.611599 -0.646129
vn -0.520974 -0.549866 -0.652865
vn -0.520974 -0.549866 -0.652865
vn -0.791956 -0.213038 0.572207
vn -0.765219 -0.183823 0.616968
vn -0.870094 -0.220477 0.440825
vn -0.870935 -0.218804 0.439997
vn -0.081790 0.435448 0.896491
vn -0.077783 0.431753 0.898632
vn 0.006600 0.351095 0.936317
vn 0.006600 0.351095 0.936316
vn 0.082727 0.211200 -0.973936
vn 0.082727 0.211200 -0.973936
vn 0.082727 0.211200 -0.973936
vn 0.082727 0.211200 -0.973936
vn -0.823538 0.013546 -0.567100
vn -0.823538 0.013546 -0.567100
vn -0.823538 0.013546 -0.567100
vn -0.823538 0.013546 -0.567100
vn -0.878664 -0.203026 0.432123
vn -0.878664 -0.203026 0.432123
vn 0.315200 -0.150507 0.937015
vn 0.315200 -0.150507 0.937015
vn 0.315200 -0.150507 0.937015
vn 0.315200 -0.150507 0.937015
vn 0.973553 0.141680 -0.179225
vn 0.973553 0.141680 -0.179225
vn 0.973553 0.141680 -0.179225
vn 0.973553 0.141680 -0.179225
vn 0.333065 -0.091154 -0.938488
vn 0.327884 -0.089469 -0.940472
vn 0.470967 -0.136225 -0.871569
vn 0.470967 -0.136225 -0.871569
vn -0.544541 -0.610937 -0.574657
vn -0.640571 -0.594967 -0.485472
vn -0.721623 -0.183455 0.667536
vn -0.711126 -0.186835 0.677785
vn 0.104135 0.459115 0.882253
vn 0.014737 0.462452 0.886522
vn 0.812949 0.526755 -0.248280
vn 0.822144 0.513365 -0.246039
vn 0.842616 0.484757 -0.234539
vn 0.843851 0.481163 -0.237480
vn 0.830925 0.515861 -0.208450
vn -0.599453 0.610666 -0.517439
vn -0.599453 0.610666 -0.517439
vn -0.701273 0.572006 -0.425470
vn -0.709262 0.568188 -0.417264
vn -0.187805 0.883727 0.428667
vn -0.187805 0.883727 0.428667
vn -0.187805 0.883727 0.428667
vn -0.187805 0.883727 0.428667
vn 0.572099 -0.088000 0.815450
vn 0.572099 -0.088000 0.815450
vn 0.402093 -0.386736 0.829914
vn 0.439712 -0.331011 0.834916
vn 0.408235 -0.827149 -0.386225
vn 0.408234 -0.827149 -0.386225
vn 0.408234 -0.827149 -0.386225
vn 0.408234 -0.827149 -0.386225
vn -0.185126 -0.437933 -0.879740
vn -0.185126 -0.437933 -0.879740
vn 0.077303 0.013806 -0.996912
vn 0.149853 0.145049 -0.978011
vn -0.221074 -0.685066 0.694126
vn 0.147700 0.037103 0.988336
vn -0.793410 -0.287843 0.536328
vn -0.726151 -0.660648 -0.190391
vn -0.966760 0.255673 -0.002472
vn -0.049367 0.498151 0.865684
vn -0.081114 0.807333 -0.584494
vn -0.917689 0.395786 -0.034642
vn 0.181163 0.804681 0.565393
vn -0.412550 -0.561579 0.717238
vn 0.823061 -0.436906 0.362883
vn 0.749666 0.480615 -0.454984
vn -0.746214 0.548685 -0.376974
vn -0.746214 0.548685 -0.376974
vn -0.736108 -0.054537 0.674664
vn -0.736108 -0.054537 0.674664
vn -0.736108 -0.054537 0.674664
vn -0.736108 -0.054537 0.674664
vn 0.293380 -0.526024 0.798265
vn 0.293380 -0.526024 0.798265
vn 0.956591 -0.230315 -0.178577
vn 0.956590 -0.230315 -0.178577
vn 0.956590 -0.230315 -0.178577
vn 0.956590 -0.230315 -0.178577
vn 0.289442 0.406889 -0.866409
vn 0.289442 0.406889 -0.866409
vn -0.568756 -0.036854 -0.821680
vn -0.568756 -0.036854 -0.821680
vn -0.944688 0.327752 -0.012005
vn -0.944688 0.327752 -0.012005
vn 0.783741 -0.159012 -0.600388
vn 0.783741 -0.159012 -0.600388
vn 0.801550 -0.248045 0.544050
vn 0.801550 -0.248045 0.544050
vn -0.297487 0.084223 0.951004
vn -0.297487 0.084223 0.951004
vn -0.934696 0.350858 0.056943
vn -0.934696 0.350858 0.056943
vn -0.341140 0.212284 -0.915729
vn -0.341140 0.212284 -0.915729
vn -0.211991 0.945674 -0.246496
vn -0.005460 0.994049 -0.108796
vn -0.029162 0.972377 -0.231588
vn -0.210289 0.906582 -0.365907
vn 0.104693 0.993815 -0.037024
vn 0.222759 0.972692 -0.065178
vn 0.303479 0.948620 0.089552
vn 0.407482 0.912251 0.041910
vn 0.049982 0.926388 -0.373238
vn -0.149586 0.864322 -0.480179
vn 0.321266 0.927544 -0.190918
vn 0.485981 0.872313 -0.053784
vn 0.201858 0.890281 -0.408233
vn -0.035732 0.833948 -0.550685
vn 0.300458 0.890820 -0.340829
vn 0.508663 0.841857 -0.180387
vn -0.064726 0.973209 -0.220626
vn -0.084408 0.993903 -0.070939
vn -0.024458 0.992524 -0.119572
vn 0.001235 0.966334 -0.257288
vn -0.091768 0.995751 0.007610
vn -0.041652 0.996879 0.067066
vn -0.100382 0.981828 0.161050
vn -0.041759 0.976770 0.210183
vn 0.080444 0.989613 -0.119141
vn 0.086450 0.959967 -0.266440
vn 0.061992 0.994375 0.085876
vn 0.041294 0.971039 0.235324
vn 0.150773 0.987437 -0.047290
vn 0.169930 0.958920 -0.227147
vn 0.144213 0.989175 0.027103
vn 0.131341 0.968569 0.211245
s 1
g pPlane4
usemtl initialShadingGroup
f 1/194/1 2/195/2 6/196/3 5/197/4
f 2/195/2 3/198/5 7/199/6 6/196/3
f 3/198/5 4/202/7 8/203/8 7/199/6
f 5/197/4 6/196/3 10/200/9 9/201/10
f 6/196/3 7/199/6 11/204/11 10/200/9
f 7/199/6 8/203/8 12/207/12 11/204/11
f 9/201/10 10/200/9 14/205/13 13/206/14
f 10/200/9 11/204/11 15/208/15 14/205/13
f 11/204/11 12/207/12 16/209/16 15/208/15
s 2
f 17/1/17 18/2/18 23/3/19 22/4/20
s 3
f 18/5/21 19/6/22 24/7/23 23/8/24
s 4
f 19/6/25 20/9/26 25/10/27 24/7/28
s 5
f 20/11/29 21/12/30 26/13/31 25/14/32
s 6
f 21/15/33 17/16/34 22/17/35 26/18/36
s 7
f 18/19/37 17/20/38 27/21/39
f 19/22/40 18/23/37 27/24/39
f 20/25/41 19/22/40 27/24/39
f 21/26/42 20/25/41 27/24/39
f 17/20/38 21/27/42 27/21/39
s 8
f 55/28/43 56/29/44 57/30/45
f 56/31/44 58/32/46 57/33/45
f 58/32/46 59/34/47 57/33/45
f 59/35/47 60/36/48 57/37/45
f 60/38/48 55/39/43 57/40/45
s 9
f 28/41/49 29/42/50 34/43/51 33/44/52
s 10
f 29/45/53 30/46/54 35/47/55 34/48/56
s 11
f 30/49/57 31/50/58 36/51/59 35/52/60
s 12
f 31/53/61 32/54/62 37/55/63 36/56/64
s 13
f 32/54/65 28/57/66 33/58/67 37/55/68
s 14
f 29/59/69 28/60/70 38/61/71
f 30/62/72 29/59/69 38/61/71
f 31/63/73 30/62/72 38/61/71
f 32/64/74 31/63/73 38/61/71
f 28/60/70 32/64/74 38/61/71
s 15
f 41/65/75 42/66/76 43/67/77
f 42/68/76 44/69/78 43/70/77
f 44/71/78 45/72/79 43/73/77
f 45/74/79 46/75/80 43/76/77
f 46/75/80 41/77/75 43/76/77
s 11
f 19/78/81 48/79/82 39/80/83 20/81/84
s 12
f 48/82/85 49/83/86 40/84/87 39/85/88
s 13
f 49/83/89 47/86/90 17/87/91 40/84/92
s 16
f 78/88/93 79/89/94 92/90/95 88/91/96
s 17
f 79/92/97 80/93/98 91/94/99 92/95/100
s 11
f 80/96/101 81/97/102 90/98/103 91/99/104
s 12
f 81/100/105 82/101/106 89/102/107 90/103/108
s 13
f 82/101/109 78/104/110 88/105/111 89/102/112
s 9
f 33/44/52 34/43/51 18/106/113 47/107/114
s 10
f 34/48/56 35/47/55 19/108/115 18/109/116
s 11
f 35/52/60 36/51/59 48/79/82 19/78/81
s 12
f 36/56/64 37/55/63 49/83/86 48/82/85
s 13
f 37/55/68 33/58/67 47/86/90 49/83/89
s 9
f 47/107/114 18/106/113 17/110/117
s 3
f 62/111/118 63/112/119 52/113/120 51/114/121
s 4
f 63/112/122 64/115/123 53/116/124 52/113/125
s 5
f 64/117/126 65/118/127 54/119/128 53/120/129
s off
f 50/121/130 51/122/131 56/29/132 55/28/133
f 51/114/134 52/113/135 58/32/136 56/31/137
s 4
f 52/113/125 53/116/124 59/34/138 58/32/139
s off
f 53/123/140 54/124/141 60/36/142 59/35/143
f 54/125/144 50/126/145 55/39/146 60/38/147
s 2
f 83/127/148 84/128/149 62/129/150 61/130/151
s 3
f 84/128/152 85/131/153 63/132/119 62/129/118
s 4
f 85/133/154 86/134/155 64/115/123 63/112/122
s 5
f 86/135/156 87/136/157 65/118/127 64/117/126
s 6
f 87/137/158 83/138/159 61/139/160 65/140/161
f 65/140/161 61/139/160 54/141/162
s 21
f 51/142/163 50/143/164 67/144/165 66/145/166
s off
f 50/146/167 54/147/168 68/148/169 67/149/170
s 22
f 54/150/171 61/151/172 69/152/173 68/153/174
s off
f 61/154/175 62/155/176 70/156/177 69/157/178
s 23
f 62/155/179 51/158/180 66/159/181 70/156/182
s 24
f 50/160/183 51/161/184 71/162/185
f 54/163/186 50/164/183 71/165/185
f 61/166/187 54/163/186 71/165/185
f 62/167/188 61/168/187 71/169/185
f 51/161/184 62/170/188 71/162/185
s 25
f 72/171/189 73/172/190 74/173/191
f 73/172/190 75/174/192 74/173/191
f 75/175/192 76/176/193 74/177/191
f 76/178/193 77/179/194 74/180/191
f 77/181/194 72/182/189 74/183/191
s 21
f 66/145/166 67/144/165 73/172/195 72/171/196
s off
f 67/144/197 68/184/198 75/174/199 73/172/200
s 22
f 68/153/174 69/152/173 76/176/201 75/175/202
s off
f 69/185/203 70/186/204 77/179/205 76/178/206
s 23
f 70/187/182 66/188/181 72/182/207 77/181/208
s 16
f 17/189/209 21/190/210 79/92/94 78/191/93
s 17
f 21/190/211 20/192/212 80/93/98 79/92/97
s 11
f 20/81/84 39/80/83 81/97/102 80/96/101
s 12
f 39/85/88 40/84/87 82/101/106 81/100/105
s 13
f 40/84/92 17/87/91 78/104/110 82/101/109
s 2
f 22/4/20 23/3/19 84/128/149 83/127/148
s 3
f 23/8/24 24/7/23 85/133/153 84/193/152
s 4
f 24/7/28 25/10/27 86/134/155 85/133/154
s 5
f 25/14/32 26/13/31 87/136/157 86/135/156
s 6
f 26/18/36 22/17/35 83/138/159 87/137/158
s 13
f 89/102/112 88/105/111 41/77/213 46/75/214
s 12
f 90/103/108 89/102/107 46/75/215 45/74/216
s 11
f 91/99/104 90/98/103 45/72/217 44/71/218
s 17
f 92/95/100 91/94/99 44/69/219 42/68/220
s 16
f 88/91/96 92/90/95 42/66/221 41/65/222
s 26
f 93/210/223 94/211/224 98/212/225 97/213/226
f 94/211/224 95/214/227 99/215/228 98/212/225
f 95/214/227 96/218/229 100/219/230 99/215/228
f 97/213/226 98/212/225 102/216/231 101/217/232
f 98/212/225 99/215/228 103/220/233 102/216/231
f 99/215/228 100/219/230 104/223/234 103/220/233
f 101/217/232 102/216/231 106/221/235 105/222/236
f 102/216/231 103/220/233 107/224/237 106/221/235
f 103/220/233 104/223/234 108/225/238 107/224/237
s 27
f 109/226/239 110/227/240 114/228/241 113/229/242
f 110/227/240 111/230/243 115/231/244 114/228/241
f 111/230/243 112/234/245 116/235/246 115/231/244
f 113/229/242 114/228/241 118/232/247 117/233/248
f 114/228/241 115/231/244 119/236/249 118/232/247
f 115/231/244 116/235/246 120/239/250 119/236/249
f 117/233/248 118/232/247 122/237/251 121/238/252
f 118/232/247 119/236/249 123/240/253 122/237/251
f 119/236/249 120/239/250 124/241/254 123/240/253
