# This file uses centimeters as units for non-parametric coordinates.

mtllib bush_Neutral.mtl
g default
v -0.001378 -0.005217 -0.103333
v -0.001378 0.062303 -0.103333
v 0.018551 -0.005217 -0.103333
v 0.018551 0.062303 -0.103333
v 0.018551 -0.005217 -0.123262
v 0.018551 0.062303 -0.123262
v -0.001378 -0.005217 -0.123262
v -0.001378 0.062303 -0.123262
v -0.001378 -0.005217 0.105335
v -0.001378 0.062303 0.105335
v 0.018551 -0.005217 0.105335
v 0.018551 0.062303 0.105335
v 0.018551 -0.005217 0.085406
v 0.018551 0.062303 0.085406
v -0.001378 -0.005217 0.085406
v -0.001378 0.062303 0.085406
v 0.127642 0.232021 0.003808
v -0.044262 0.424143 -0.128030
v 0.082645 0.058222 -0.126133
v -0.251415 0.129293 -0.107495
v -0.241473 0.266529 0.044719
v -0.125169 0.081386 0.068383
v -0.044262 0.035363 -0.082407
v -0.148960 0.323828 0.069213
v 0.151413 0.232021 0.119396
v -0.045938 0.066484 0.159719
v -0.003895 0.042182 0.053968
v 0.085014 0.485027 0.079905
v 0.028223 0.087174 0.006260
v 0.095563 0.410712 -0.005583
v -0.062620 0.132080 -0.158017
v -0.262484 0.269870 -0.059212
v 0.005126 0.131153 -0.075245
v -0.045395 0.139855 -0.032661
v 0.048678 0.084176 -0.190360
v 0.037468 0.104607 -0.011309
v -0.050850 0.084795 -0.187481
v 0.081419 0.069329 0.077083
v -0.110763 0.101941 -0.109085
v -0.086777 0.078612 0.074719
v -0.125477 0.150869 -0.037412
v -0.181676 0.106280 -0.147002
v -0.128751 0.232021 0.005467
v -0.031058 0.327633 0.241320
v 0.084305 0.163013 0.018336
v -0.029100 0.327633 -0.061117
v 0.010391 0.485027 0.175310
v 0.114517 0.164850 -0.188627
v -0.062523 0.180889 0.102550
v 0.000674 0.153318 -0.241320
v -0.195953 0.061536 0.020819
v -0.112236 0.165272 -0.186631
v -0.038882 0.517094 0.093970
v -0.074776 0.044920 -0.016072
v -0.015885 0.110698 0.026709
v -0.059755 0.212813 0.030714
v -0.151560 0.232911 0.090796
v -0.024628 0.482775 0.003708
v -0.001056 0.265195 0.029581
v 0.143711 0.191216 -0.068097
v 0.143711 0.268290 -0.142339
v -0.128679 0.214167 -0.185382
v 0.084305 0.296492 -0.228772
v -0.194738 0.287848 -0.140014
v -0.059755 0.246693 -0.241151
v -0.079532 0.455047 0.163795
v -0.125477 0.308637 -0.173025
v -0.035733 0.329257 -0.032009
v -0.120625 0.334715 -0.054586
v -0.194835 0.180889 0.102550
v 0.000674 0.306187 0.030883
v -0.269818 0.155285 -0.004826
v 0.114517 0.294655 -0.021809
v -0.031740 0.284246 -0.121827
v -0.130970 0.419799 0.095410
v -0.130474 0.220146 0.168162
v 0.085348 0.134469 0.186372
v 0.028223 0.372332 -0.216697
v 0.057538 0.232911 -0.049918
v -0.153706 0.360255 -0.054850
v -0.022641 0.145579 0.219238
v -0.143000 0.038428 -0.093671
v 0.084829 0.327633 0.219047
v -0.050850 0.374710 -0.022955
v -0.117028 0.374253 0.010036
v 0.048678 0.375330 -0.020077
v -0.107522 0.326743 0.197112
v 0.082645 0.401284 -0.084303
v 0.122957 0.419799 0.135691
v -0.152791 -0.005217 -0.026623
v -0.152791 0.062303 -0.026623
v -0.132862 -0.005217 -0.026623
v -0.132862 0.062303 -0.026623
v -0.132862 -0.005217 -0.046552
v -0.132862 0.062303 -0.046552
v -0.152791 -0.005217 -0.046552
v -0.152791 0.062303 -0.046552
vt 0.221729 0.014932
vt 0.221729 0.348890
vt 0.221729 0.348890
vt 0.221729 0.014932
vt 0.320302 0.014932
vt 0.320302 0.348890
vt 0.320302 0.014932
vt 0.320302 0.348890
vt 0.221729 0.014932
vt 0.221729 0.348890
vt 0.221729 0.348890
vt 0.221729 0.014932
vt 0.320302 0.014932
vt 0.320302 0.348890
vt 0.320302 0.014932
vt 0.320302 0.348890
vt 0.207162 0.810181
vt 0.310169 0.815969
vt 0.281990 0.902748
vt 0.468296 0.722732
vt 0.522393 0.720826
vt 0.537312 0.815093
vt 0.412078 0.204916
vt 0.441631 0.066519
vt 0.504377 0.128812
vt 0.036714 0.454707
vt 0.132456 0.447503
vt 0.147639 0.506772
vt 0.087036 0.702126
vt 0.099552 0.790047
vt 0.009157 0.766219
vt 0.059319 0.602086
vt 0.940889 0.169282
vt 0.847355 0.079334
vt 0.914254 0.008368
vt 0.151168 0.696449
vt 0.328421 0.733428
vt 0.258522 0.752227
vt 0.168689 0.597597
vt 0.308535 0.672873
vt 0.770946 0.715983
vt 0.863666 0.715753
vt 0.818495 0.790430
vt 0.674544 0.828206
vt 0.765443 0.885613
vt 0.238319 0.590252
vt 0.230703 0.440555
vt 0.271602 0.531045
vt 0.608164 0.892794
vt 0.143308 0.351887
vt 0.608178 0.975255
vt 0.053827 0.904859
vt 0.510828 0.938325
vt 0.744258 0.384571
vt 0.814118 0.515451
vt 0.716704 0.451884
vt 0.687799 0.652942
vt 0.796296 0.634672
vt 0.226381 0.671922
vt 0.841978 0.175551
vt 0.646742 0.759733
vt 0.154325 0.871720
vt 0.260448 0.994839
vt 0.620975 0.584987
vt 0.551429 0.651564
vt 0.365775 0.376099
vt 0.333980 0.480026
vt 0.780575 0.159919
vt 0.896619 0.534742
vt 0.624522 0.466730
vt 0.483020 0.481890
vt 0.510220 0.556567
vt 0.351401 0.601580
vt 0.788989 0.969193
vt 0.458803 0.597121
vt 0.610593 0.228174
vt 0.728181 0.278865
vt 0.635858 0.308105
vt 0.882605 0.324859
vt 1.006135 0.282906
vt 0.533839 0.328616
vt 0.527859 0.248328
vt 0.400112 0.699718
vt 0.426618 0.813527
vt 0.739799 0.019233
vt 0.709316 0.109292
vt 0.757518 0.538011
vt 0.717384 0.588653
vt 0.841983 0.588281
vt 0.628771 0.525370
vt 0.905240 0.838267
vt 0.838930 0.254501
vt 0.752505 0.364017
vt 0.631308 0.707414
vt 0.582558 0.108851
vt 0.995432 0.121344
vt 0.631133 0.154130
vt 0.697504 0.200483
vt 0.548795 0.400366
vt 0.911797 0.405590
vt 0.570031 0.014975
vt 0.221729 0.014932
vt 0.221729 0.348890
vt 0.221729 0.348890
vt 0.221729 0.014932
vt 0.320302 0.014932
vt 0.320302 0.348890
vt 0.320302 0.014932
vt 0.320302 0.348890
vn 0.000000 0.000000 1.000000
vn 0.000000 0.000000 1.000000
vn 0.000000 0.000000 1.000000
vn 0.000000 0.000000 1.000000
vn 1.000000 0.000000 0.000000
vn 1.000000 0.000000 0.000000
vn 1.000000 0.000000 0.000000
vn 1.000000 0.000000 0.000000
vn 0.000000 0.000000 -1.000000
vn 0.000000 0.000000 -1.000000
vn 0.000000 0.000000 -1.000000
vn 0.000000 0.000000 -1.000000
vn -1.000000 0.000000 0.000000
vn -1.000000 0.000000 0.000000
vn -1.000000 0.000000 0.000000
vn -1.000000 0.000000 0.000000
vn 0.000000 1.000000 0.000000
vn 0.000000 1.000000 0.000000
vn 0.000000 1.000000 0.000000
vn 0.000000 1.000000 0.000000
vn 0.000000 -1.000000 0.000000
vn 0.000000 -1.000000 0.000000
vn 0.000000 -1.000000 0.000000
vn 0.000000 -1.000000 0.000000
vn 0.000000 0.000000 1.000000
vn 0.000000 0.000000 1.000000
vn 0.000000 0.000000 1.000000
vn 0.000000 0.000000 1.000000
vn 1.000000 0.000000 0.000000
vn 1.000000 0.000000 0.000000
vn 1.000000 0.000000 0.000000
vn 1.000000 0.000000 0.000000
vn 0.000000 0.000000 -1.000000
vn 0.000000 0.000000 -1.000000
vn 0.000000 0.000000 -1.000000
vn 0.000000 0.000000 -1.000000
vn -1.000000 0.000000 0.000000
vn -1.000000 0.000000 0.000000
vn -1.000000 0.000000 0.000000
vn -1.000000 0.000000 0.000000
vn 0.000000 1.000000 0.000000
vn 0.000000 1.000000 0.000000
vn 0.000000 1.000000 0.000000
vn 0.000000 1.000000 0.000000
vn 0.000000 -1.000000 0.000000
vn 0.000000 -1.000000 0.000000
vn 0.000000 -1.000000 0.000000
vn 0.000000 -1.000000 0.000000
vn -0.869890 0.293959 -0.396080
vn -0.303162 0.929395 -0.210519
vn 0.109014 0.655055 -0.747676
vn -0.049757 -0.966392 -0.252212
vn 0.396057 -0.534528 -0.746605
vn 0.698313 -0.715762 -0.006538
vn -0.383457 -0.072788 0.920686
vn -0.756028 0.417246 0.504308
vn -0.935232 -0.261293 0.238886
vn -0.331344 -0.717891 -0.612245
vn 0.297778 -0.660938 -0.688832
vn 0.599180 -0.800192 -0.026002
vn -0.842024 -0.529421 -0.103487
vn -0.868218 -0.204733 -0.451976
vn -0.236107 -0.946876 0.218357
vn -0.080971 0.707211 0.702351
vn -0.197318 0.970102 -0.141306
vn -0.879523 0.439479 -0.182478
vn -0.850882 -0.253996 0.459876
vn -0.316156 0.720539 0.617146
vn -0.893233 0.327900 0.307598
vn 0.109015 -0.655055 0.747676
vn -0.008744 0.258072 0.966086
vn 0.678231 0.346451 -0.648054
vn 0.592838 0.795024 -0.128371
vn 0.904231 0.342278 0.255366
vn 0.984270 -0.091912 0.150881
vn 0.529010 0.104966 0.842099
vn 0.536723 -0.245307 0.807312
vn 0.769718 -0.262875 -0.581748
vn 0.946640 -0.234776 0.220801
vn 0.584645 -0.434258 0.685281
vn 0.048745 -0.247450 -0.967674
vn -0.136205 -0.304325 0.942780
vn -0.324622 -0.767748 0.552434
vn -0.105102 0.098662 0.989555
vn -0.560338 0.534117 0.633041
vn -0.757389 0.136262 0.638588
vn -0.146309 0.153400 -0.977273
vn -0.154311 0.677524 -0.719131
vn -0.410595 -0.056158 0.910087
vn 0.540412 0.839069 0.062596
vn 0.883938 -0.101835 -0.456380
vn -0.338895 0.114115 -0.933878
vn 0.536724 0.245307 -0.807312
vn -0.795645 -0.127643 -0.592162
vn -0.386950 -0.377461 -0.841304
vn 0.946640 0.234776 -0.220801
vn 0.671082 0.451461 -0.588075
vn 0.163347 0.667760 0.726233
vn -0.802164 -0.182827 0.568425
vn -0.765066 -0.629339 -0.136407
vn 0.769718 0.262875 0.581748
vn 0.599180 0.800192 0.026002
vn -0.083668 -0.932262 -0.351977
vn 0.923912 -0.257441 -0.283040
vn 0.394510 -0.917383 0.052632
vn 0.384233 0.010564 0.923176
vn 0.043505 -0.637710 0.769047
vn -0.545887 -0.773056 0.323098
vn 0.297778 0.660938 0.688832
vn -0.404064 0.503236 -0.763862
vn -0.038532 0.149412 -0.988024
vn -0.914862 0.403549 -0.013279
vn -0.754093 0.278963 -0.594579
vn -0.278922 0.958566 -0.057921
vn -0.994074 -0.108067 -0.011787
vn 0.843409 0.347153 0.410057
vn 0.808500 -0.413225 0.419014
vn 0.321303 -0.084951 -0.943158
vn -0.821831 -0.331517 -0.463347
vn -0.294924 -0.437379 -0.849541
vn 0.502469 -0.359640 -0.786247
vn 0.000000 0.000000 1.000000
vn 0.000000 0.000000 1.000000
vn 0.000000 0.000000 1.000000
vn 0.000000 0.000000 1.000000
vn 1.000000 0.000000 0.000000
vn 1.000000 0.000000 0.000000
vn 1.000000 0.000000 0.000000
vn 1.000000 0.000000 0.000000
vn 0.000000 0.000000 -1.000000
vn 0.000000 0.000000 -1.000000
vn 0.000000 0.000000 -1.000000
vn 0.000000 0.000000 -1.000000
vn -1.000000 0.000000 0.000000
vn -1.000000 0.000000 0.000000
vn -1.000000 0.000000 0.000000
vn -1.000000 0.000000 0.000000
vn 0.000000 1.000000 0.000000
vn 0.000000 1.000000 0.000000
vn 0.000000 1.000000 0.000000
vn 0.000000 1.000000 0.000000
vn 0.000000 -1.000000 0.000000
vn 0.000000 -1.000000 0.000000
vn 0.000000 -1.000000 0.000000
vn 0.000000 -1.000000 0.000000
s off
g bush:bush:polySurface1
usemtl bush:texturedFacets2
f 3/1/1 4/2/2 2/3/3 1/4/4
f 5/5/5 6/6/6 4/2/7 3/1/8
f 7/7/9 8/8/10 6/6/11 5/5/12
f 1/4/13 2/3/14 8/8/15 7/7/16
f 4/2/17 6/6/18 8/8/19 2/3/20
f 5/5/21 3/1/22 1/4/23 7/7/24
f 11/9/25 12/10/26 10/11/27 9/12/28
f 13/13/29 14/14/30 12/10/31 11/9/32
f 15/15/33 16/16/34 14/14/35 13/13/36
f 9/12/37 10/11/38 16/16/39 15/15/40
f 12/10/41 14/14/42 16/16/43 10/11/44
f 13/13/45 11/9/46 9/12/47 15/15/48
s 1
usemtl bush:texturedFacets3
f 67/17/49 18/18/50 78/19/51
s 2
usemtl Angel4:texturedFacets45
f 27/20/52 36/21/53 38/22/54
s 3
usemtl bush:texturedFacets1
f 70/23/55 21/24/56 72/25/57
s 1
usemtl bush:texturedFacets3
f 37/26/58 35/27/59 19/28/60
f 39/29/61 52/30/62 37/31/58
f 39/29/61 37/31/58 23/32/63
s 3
usemtl bush:texturedFacets1
f 24/33/64 80/34/65 32/35/66
s 1
usemtl bush:texturedFacets3
f 41/36/67 39/29/61 23/32/63
f 84/37/68 18/18/50 69/38/69
f 29/39/70 41/36/67 23/32/63
f 71/40/71 84/37/68 69/38/69
s 2
usemtl Angel4:texturedFacets45
f 30/41/72 28/42/73 89/43/74
f 25/44/75 89/43/74 83/45/76
s 1
usemtl bush:texturedFacets3
f 19/28/60 45/46/77 29/39/70
f 48/47/78 60/48/79 19/28/60
s 2
usemtl Angel4:texturedFacets45
f 25/44/75 83/45/76 77/49/80
s 1
usemtl bush:texturedFacets3
f 50/50/81 48/47/78 35/27/59
s 2
usemtl Angel4:texturedFacets45
f 77/49/80 83/45/76 81/51/82
s 1
usemtl bush:texturedFacets3
f 52/30/62 50/52/81 37/31/58
s 2
usemtl Angel4:texturedFacets45
f 38/22/54 26/53/83 27/20/52
s 1
usemtl bush:texturedFacets3
f 41/36/67 52/30/62 39/29/61
s 2
usemtl Angel4:texturedFacets45
f 44/54/84 66/55/85 87/56/86
f 46/57/87 58/58/88 30/41/72
s 1
usemtl bush:texturedFacets3
f 19/28/60 60/48/79 45/46/77
f 45/46/77 56/59/89 29/39/70
s 3
usemtl bush:texturedFacets1
f 80/34/65 24/33/64 68/60/90
s 2
usemtl Angel4:texturedFacets45
f 17/61/91 30/41/72 25/44/75
s 1
usemtl bush:texturedFacets3
f 65/62/92 78/19/51 63/63/93
s 2
usemtl Angel4:texturedFacets45
f 43/64/94 46/57/87 34/65/95
s 1
usemtl bush:texturedFacets3
f 63/66/93 61/67/96 48/47/78
s 3
usemtl bush:texturedFacets1
f 80/34/65 68/60/90 74/68/97
s 1
usemtl bush:texturedFacets3
f 65/62/92 63/63/93 50/52/81
s 2
usemtl Angel4:texturedFacets45
f 47/69/98 66/55/85 44/54/84
s 1
usemtl bush:texturedFacets3
f 67/17/49 65/62/92 52/30/62
s 2
usemtl Angel4:texturedFacets45
f 30/41/72 89/43/74 25/44/75
s 1
usemtl bush:texturedFacets3
f 69/38/69 67/17/49 41/36/67
s 2
usemtl Angel4:texturedFacets45
f 44/54/84 87/56/86 76/70/99
s 1
usemtl bush:texturedFacets3
f 71/40/71 69/38/69 56/59/89
s 2
usemtl Angel4:texturedFacets45
f 26/71/83 40/72/100 27/20/52
s 1
usemtl bush:texturedFacets3
f 73/73/101 71/40/71 45/46/77
s 2
usemtl Angel4:texturedFacets45
f 83/45/76 44/74/84 81/51/82
s 1
usemtl bush:texturedFacets3
f 61/67/96 73/73/101 60/48/79
f 63/66/93 88/75/102 61/67/96
s 3
usemtl bush:texturedFacets1
f 82/76/103 33/77/104 54/78/105
f 49/79/106 24/33/64 70/80/55
f 54/78/105 22/81/107 51/82/108
s 1
usemtl bush:texturedFacets3
f 67/17/49 78/19/51 65/62/92
f 86/83/109 88/84/102 84/37/68
s 3
usemtl bush:texturedFacets1
f 64/85/110 74/68/97 62/86/111
s 1
usemtl bush:texturedFacets3
f 63/63/93 78/19/51 88/84/102
s 2
usemtl Angel4:texturedFacets45
f 87/56/86 66/55/85 75/87/112
f 43/64/94 85/88/113 46/57/87
s 1
usemtl bush:texturedFacets3
f 86/83/109 84/37/68 71/40/71
f 50/50/81 63/66/93 48/47/78
f 88/75/102 86/83/109 73/73/101
f 69/38/69 18/18/50 67/17/49
s 2
usemtl Angel4:texturedFacets45
f 66/55/85 53/89/114 75/87/112
f 17/61/91 25/44/75 38/22/54
s 1
usemtl bush:texturedFacets3
f 45/46/77 71/40/71 56/59/89
s 2
usemtl Angel4:texturedFacets45
f 76/70/99 57/90/115 40/72/100
f 76/70/99 75/87/112 57/90/115
f 89/43/74 47/91/98 83/45/76
s 1
usemtl bush:texturedFacets3
f 56/59/89 69/38/69 41/36/67
s 2
usemtl Angel4:texturedFacets45
f 34/65/95 36/21/53 27/20/52
s 1
usemtl bush:texturedFacets3
f 23/32/63 37/26/58 19/28/60
s 3
usemtl bush:texturedFacets1
f 64/85/110 80/34/65 74/68/97
s 1
usemtl bush:texturedFacets3
f 88/84/102 18/18/50 84/37/68
s 2
usemtl Angel4:texturedFacets45
f 40/72/100 43/64/94 34/65/95
s 3
usemtl bush:texturedFacets1
f 74/68/97 68/60/90 59/92/116
s 1
usemtl bush:texturedFacets3
f 29/39/70 56/59/89 41/36/67
s 2
usemtl Angel4:texturedFacets45
f 75/87/112 58/58/88 85/88/113
s 1
usemtl bush:texturedFacets3
f 18/18/50 88/84/102 78/19/51
s 3
usemtl bush:texturedFacets1
f 33/77/104 59/92/116 55/93/117
s 2
usemtl Angel4:texturedFacets45
f 46/57/87 30/41/72 79/94/118
s 3
usemtl bush:texturedFacets1
f 51/82/108 72/25/57 20/95/119
f 21/96/56 24/33/64 32/35/66
s 1
usemtl bush:texturedFacets3
f 73/73/101 86/83/109 71/40/71
s 2
usemtl Angel4:texturedFacets45
f 83/45/76 47/91/98 44/74/84
f 53/89/114 28/42/73 58/58/88
f 75/87/112 85/88/113 43/64/94
f 57/90/115 43/64/94 40/72/100
f 34/65/95 46/57/87 79/94/118
f 26/71/83 76/70/99 40/72/100
f 87/56/86 75/87/112 76/70/99
s 1
usemtl bush:texturedFacets3
f 41/36/67 67/17/49 52/30/62
s 2
usemtl Angel4:texturedFacets45
f 38/22/54 77/49/80 26/53/83
s 3
usemtl bush:texturedFacets1
f 54/78/105 51/82/108 82/76/103
f 42/97/120 62/86/111 31/98/121
f 32/35/66 80/34/65 64/85/110
s 2
usemtl Angel4:texturedFacets45
f 36/21/53 17/61/91 38/22/54
f 81/99/82 44/54/84 76/70/99
f 85/88/113 58/58/88 46/57/87
s 1
usemtl bush:texturedFacets3
f 60/48/79 73/73/101 45/46/77
s 2
usemtl Angel4:texturedFacets45
f 77/49/80 81/51/82 26/53/83
s 3
usemtl bush:texturedFacets1
f 22/81/107 70/23/55 51/82/108
f 31/98/121 74/68/97 33/77/104
s 1
usemtl bush:texturedFacets3
f 19/28/60 29/39/70 23/32/63
s 2
usemtl Angel4:texturedFacets45
f 38/22/54 25/44/75 77/49/80
s 1
usemtl bush:texturedFacets3
f 52/30/62 65/62/92 50/52/81
s 3
usemtl bush:texturedFacets1
f 31/98/121 33/77/104 82/76/103
f 24/33/64 21/96/56 70/80/55
f 42/97/120 31/98/121 82/76/103
f 55/93/117 49/79/106 22/100/107
f 20/95/119 42/97/120 82/76/103
f 20/95/119 64/85/110 62/86/111
f 51/82/108 20/95/119 82/76/103
s 1
usemtl bush:texturedFacets3
f 37/26/58 50/50/81 35/27/59
s 2
usemtl Angel4:texturedFacets45
f 34/65/95 79/94/118 36/21/53
f 40/72/100 34/65/95 27/20/52
s 3
usemtl bush:texturedFacets1
f 55/93/117 22/81/107 54/78/105
s 2
usemtl Angel4:texturedFacets45
f 79/94/118 17/61/91 36/21/53
s 3
usemtl bush:texturedFacets1
f 33/77/104 55/93/117 54/78/105
f 68/60/90 24/33/64 59/92/116
s 1
usemtl bush:texturedFacets3
f 48/47/78 61/67/96 60/48/79
s 2
usemtl Angel4:texturedFacets45
f 81/99/82 76/70/99 26/71/83
s 3
usemtl bush:texturedFacets1
f 55/93/117 59/92/116 49/79/106
f 20/95/119 62/86/111 42/97/120
f 72/25/57 32/101/66 20/95/119
f 59/92/116 24/33/64 49/79/106
s 2
usemtl Angel4:texturedFacets45
f 53/89/114 47/69/98 28/42/73
s 3
usemtl bush:texturedFacets1
f 70/23/55 72/25/57 51/82/108
s 2
usemtl Angel4:texturedFacets45
f 79/94/118 30/41/72 17/61/91
s 3
usemtl bush:texturedFacets1
f 49/79/106 70/80/55 22/100/107
s 2
usemtl Angel4:texturedFacets45
f 47/69/98 53/89/114 66/55/85
s 1
usemtl bush:texturedFacets3
f 35/27/59 48/47/78 19/28/60
s 2
usemtl Angel4:texturedFacets45
f 57/90/115 75/87/112 43/64/94
s 3
usemtl bush:texturedFacets1
f 74/68/97 59/92/116 33/77/104
s 2
usemtl Angel4:texturedFacets45
f 58/58/88 28/42/73 30/41/72
s 3
usemtl bush:texturedFacets1
f 62/86/111 74/68/97 31/98/121
s 2
usemtl Angel4:texturedFacets45
f 75/87/112 53/89/114 58/58/88
s 1
usemtl bush:texturedFacets3
f 61/67/96 88/75/102 73/73/101
s 3
usemtl bush:texturedFacets1
f 32/101/66 64/85/110 20/95/119
s 2
usemtl Angel4:texturedFacets45
f 28/42/73 47/91/98 89/43/74
s 3
usemtl bush:texturedFacets1
f 21/24/56 32/101/66 72/25/57
s off
usemtl bush:texturedFacets2
f 92/102/122 93/103/123 91/104/124 90/105/125
f 94/106/126 95/107/127 93/103/128 92/102/129
f 96/108/130 97/109/131 95/107/132 94/106/133
f 90/105/134 91/104/135 97/109/136 96/108/137
f 93/103/138 95/107/139 97/109/140 91/104/141
f 94/106/142 92/102/143 90/105/144 96/108/145
